<mxfile host="app.diagrams.net" modified="2021-11-18T02:44:40.092Z" agent="5.0 (Windows NT 10.0; Win64; x64) AppleWebKit/537.36 (KHTML, like Gecko) Chrome/95.0.4638.69 Safari/537.36" etag="eHr20lHT4rV_gASBzr_M" version="15.7.4" type="github">
  <diagram id="C5RBs43oDa-KdzZeNtuy" name="Page-1">
    <mxGraphModel dx="3152" dy="1304" grid="1" gridSize="10" guides="1" tooltips="1" connect="1" arrows="1" fold="1" page="1" pageScale="1" pageWidth="827" pageHeight="1169" math="0" shadow="0">
      <root>
        <mxCell id="WIyWlLk6GJQsqaUBKTNV-0" />
        <mxCell id="WIyWlLk6GJQsqaUBKTNV-1" parent="WIyWlLk6GJQsqaUBKTNV-0" />
        <mxCell id="zBhqYliXO54fjdQmm1mg-143" style="edgeStyle=orthogonalEdgeStyle;rounded=0;jumpStyle=none;orthogonalLoop=1;jettySize=auto;html=1;exitX=0;exitY=0.5;exitDx=0;exitDy=0;entryX=1;entryY=0.5;entryDx=0;entryDy=0;fontSize=14;startSize=14;endSize=14;strokeWidth=3;endArrow=ERzeroToMany;endFill=0;" parent="WIyWlLk6GJQsqaUBKTNV-1" source="zBhqYliXO54fjdQmm1mg-2" target="zBhqYliXO54fjdQmm1mg-126" edge="1">
          <mxGeometry relative="1" as="geometry">
            <Array as="points">
              <mxPoint x="-280" y="120" />
              <mxPoint x="-450" y="120" />
              <mxPoint x="-450" y="585" />
            </Array>
          </mxGeometry>
        </mxCell>
        <mxCell id="zBhqYliXO54fjdQmm1mg-1" value="accounts_user" style="shape=table;startSize=30;container=1;collapsible=1;childLayout=tableLayout;fixedRows=1;rowLines=0;fontStyle=1;align=center;resizeLast=1;fontSize=14;" parent="WIyWlLk6GJQsqaUBKTNV-1" vertex="1">
          <mxGeometry x="-280" y="65" width="211" height="160" as="geometry" />
        </mxCell>
        <mxCell id="zBhqYliXO54fjdQmm1mg-2" value="" style="shape=partialRectangle;collapsible=0;dropTarget=0;pointerEvents=0;fillColor=none;top=0;left=0;bottom=1;right=0;points=[[0,0.5],[1,0.5]];portConstraint=eastwest;fontStyle=1;fontSize=14;" parent="zBhqYliXO54fjdQmm1mg-1" vertex="1">
          <mxGeometry y="30" width="211" height="30" as="geometry" />
        </mxCell>
        <mxCell id="zBhqYliXO54fjdQmm1mg-3" value="PK" style="shape=partialRectangle;connectable=0;fillColor=none;top=0;left=0;bottom=0;right=0;fontStyle=1;overflow=hidden;fontSize=14;" parent="zBhqYliXO54fjdQmm1mg-2" vertex="1">
          <mxGeometry width="30" height="30" as="geometry">
            <mxRectangle width="30" height="30" as="alternateBounds" />
          </mxGeometry>
        </mxCell>
        <mxCell id="zBhqYliXO54fjdQmm1mg-4" value="userid (integer)" style="shape=partialRectangle;connectable=0;fillColor=none;top=0;left=0;bottom=0;right=0;align=left;spacingLeft=6;fontStyle=5;overflow=hidden;fontSize=14;" parent="zBhqYliXO54fjdQmm1mg-2" vertex="1">
          <mxGeometry x="30" width="181" height="30" as="geometry">
            <mxRectangle width="181" height="30" as="alternateBounds" />
          </mxGeometry>
        </mxCell>
        <mxCell id="zBhqYliXO54fjdQmm1mg-5" value="" style="shape=partialRectangle;collapsible=0;dropTarget=0;pointerEvents=0;fillColor=none;top=0;left=0;bottom=0;right=0;points=[[0,0.5],[1,0.5]];portConstraint=eastwest;fontStyle=1;fontSize=14;" parent="zBhqYliXO54fjdQmm1mg-1" vertex="1">
          <mxGeometry y="60" width="211" height="40" as="geometry" />
        </mxCell>
        <mxCell id="zBhqYliXO54fjdQmm1mg-6" value="" style="shape=partialRectangle;connectable=0;fillColor=none;top=0;left=0;bottom=0;right=0;editable=1;overflow=hidden;fontStyle=1;fontSize=14;" parent="zBhqYliXO54fjdQmm1mg-5" vertex="1">
          <mxGeometry width="30" height="40" as="geometry">
            <mxRectangle width="30" height="40" as="alternateBounds" />
          </mxGeometry>
        </mxCell>
        <mxCell id="zBhqYliXO54fjdQmm1mg-7" value="username (varchar)" style="shape=partialRectangle;connectable=0;fillColor=none;top=0;left=0;bottom=0;right=0;align=left;spacingLeft=6;overflow=hidden;fontStyle=1;fontSize=14;" parent="zBhqYliXO54fjdQmm1mg-5" vertex="1">
          <mxGeometry x="30" width="181" height="40" as="geometry">
            <mxRectangle width="181" height="40" as="alternateBounds" />
          </mxGeometry>
        </mxCell>
        <mxCell id="zBhqYliXO54fjdQmm1mg-8" value="" style="shape=partialRectangle;collapsible=0;dropTarget=0;pointerEvents=0;fillColor=none;top=0;left=0;bottom=0;right=0;points=[[0,0.5],[1,0.5]];portConstraint=eastwest;fontStyle=1;fontSize=14;" parent="zBhqYliXO54fjdQmm1mg-1" vertex="1">
          <mxGeometry y="100" width="211" height="30" as="geometry" />
        </mxCell>
        <mxCell id="zBhqYliXO54fjdQmm1mg-9" value="" style="shape=partialRectangle;connectable=0;fillColor=none;top=0;left=0;bottom=0;right=0;editable=1;overflow=hidden;fontStyle=1;fontSize=14;" parent="zBhqYliXO54fjdQmm1mg-8" vertex="1">
          <mxGeometry width="30" height="30" as="geometry">
            <mxRectangle width="30" height="30" as="alternateBounds" />
          </mxGeometry>
        </mxCell>
        <mxCell id="zBhqYliXO54fjdQmm1mg-10" value="profile_image (image)" style="shape=partialRectangle;connectable=0;fillColor=none;top=0;left=0;bottom=0;right=0;align=left;spacingLeft=6;overflow=hidden;fontStyle=1;fontSize=14;" parent="zBhqYliXO54fjdQmm1mg-8" vertex="1">
          <mxGeometry x="30" width="181" height="30" as="geometry">
            <mxRectangle width="181" height="30" as="alternateBounds" />
          </mxGeometry>
        </mxCell>
        <mxCell id="zBhqYliXO54fjdQmm1mg-65" value="" style="shape=partialRectangle;collapsible=0;dropTarget=0;pointerEvents=0;fillColor=none;top=0;left=0;bottom=0;right=0;points=[[0,0.5],[1,0.5]];portConstraint=eastwest;fontStyle=1;fontSize=14;" parent="zBhqYliXO54fjdQmm1mg-1" vertex="1">
          <mxGeometry y="130" width="211" height="20" as="geometry" />
        </mxCell>
        <mxCell id="zBhqYliXO54fjdQmm1mg-66" value="" style="shape=partialRectangle;connectable=0;fillColor=none;top=0;left=0;bottom=0;right=0;editable=1;overflow=hidden;fontStyle=1;fontSize=14;" parent="zBhqYliXO54fjdQmm1mg-65" vertex="1">
          <mxGeometry width="30" height="20" as="geometry">
            <mxRectangle width="30" height="20" as="alternateBounds" />
          </mxGeometry>
        </mxCell>
        <mxCell id="zBhqYliXO54fjdQmm1mg-67" value="rank_point(integer)" style="shape=partialRectangle;connectable=0;fillColor=none;top=0;left=0;bottom=0;right=0;align=left;spacingLeft=6;overflow=hidden;fontStyle=1;fontSize=14;" parent="zBhqYliXO54fjdQmm1mg-65" vertex="1">
          <mxGeometry x="30" width="181" height="20" as="geometry">
            <mxRectangle width="181" height="20" as="alternateBounds" />
          </mxGeometry>
        </mxCell>
        <mxCell id="zBhqYliXO54fjdQmm1mg-71" value="accounts_user_followers" style="shape=table;startSize=30;container=1;collapsible=1;childLayout=tableLayout;fixedRows=1;rowLines=0;fontStyle=1;align=center;resizeLast=1;fontSize=14;" parent="WIyWlLk6GJQsqaUBKTNV-1" vertex="1">
          <mxGeometry x="-710" y="60" width="195" height="150" as="geometry" />
        </mxCell>
        <mxCell id="zBhqYliXO54fjdQmm1mg-72" value="" style="shape=partialRectangle;collapsible=0;dropTarget=0;pointerEvents=0;fillColor=none;top=0;left=0;bottom=1;right=0;points=[[0,0.5],[1,0.5]];portConstraint=eastwest;fontSize=14;" parent="zBhqYliXO54fjdQmm1mg-71" vertex="1">
          <mxGeometry y="30" width="195" height="30" as="geometry" />
        </mxCell>
        <mxCell id="zBhqYliXO54fjdQmm1mg-73" value="PK" style="shape=partialRectangle;connectable=0;fillColor=none;top=0;left=0;bottom=0;right=0;fontStyle=1;overflow=hidden;fontSize=14;" parent="zBhqYliXO54fjdQmm1mg-72" vertex="1">
          <mxGeometry width="30" height="30" as="geometry">
            <mxRectangle width="30" height="30" as="alternateBounds" />
          </mxGeometry>
        </mxCell>
        <mxCell id="zBhqYliXO54fjdQmm1mg-74" value="userid (integer)" style="shape=partialRectangle;connectable=0;fillColor=none;top=0;left=0;bottom=0;right=0;align=left;spacingLeft=6;fontStyle=5;overflow=hidden;fontSize=14;" parent="zBhqYliXO54fjdQmm1mg-72" vertex="1">
          <mxGeometry x="30" width="165" height="30" as="geometry">
            <mxRectangle width="165" height="30" as="alternateBounds" />
          </mxGeometry>
        </mxCell>
        <mxCell id="zBhqYliXO54fjdQmm1mg-75" value="" style="shape=partialRectangle;collapsible=0;dropTarget=0;pointerEvents=0;fillColor=none;top=0;left=0;bottom=0;right=0;points=[[0,0.5],[1,0.5]];portConstraint=eastwest;fontSize=14;" parent="zBhqYliXO54fjdQmm1mg-71" vertex="1">
          <mxGeometry y="60" width="195" height="40" as="geometry" />
        </mxCell>
        <mxCell id="zBhqYliXO54fjdQmm1mg-76" value="" style="shape=partialRectangle;connectable=0;fillColor=none;top=0;left=0;bottom=0;right=0;editable=1;overflow=hidden;fontSize=14;" parent="zBhqYliXO54fjdQmm1mg-75" vertex="1">
          <mxGeometry width="30" height="40" as="geometry">
            <mxRectangle width="30" height="40" as="alternateBounds" />
          </mxGeometry>
        </mxCell>
        <mxCell id="zBhqYliXO54fjdQmm1mg-77" value="from_user_id (integer)" style="shape=partialRectangle;connectable=0;fillColor=none;top=0;left=0;bottom=0;right=0;align=left;spacingLeft=6;overflow=hidden;fontSize=14;fontStyle=1" parent="zBhqYliXO54fjdQmm1mg-75" vertex="1">
          <mxGeometry x="30" width="165" height="40" as="geometry">
            <mxRectangle width="165" height="40" as="alternateBounds" />
          </mxGeometry>
        </mxCell>
        <mxCell id="zBhqYliXO54fjdQmm1mg-78" value="" style="shape=partialRectangle;collapsible=0;dropTarget=0;pointerEvents=0;fillColor=none;top=0;left=0;bottom=0;right=0;points=[[0,0.5],[1,0.5]];portConstraint=eastwest;fontSize=14;" parent="zBhqYliXO54fjdQmm1mg-71" vertex="1">
          <mxGeometry y="100" width="195" height="40" as="geometry" />
        </mxCell>
        <mxCell id="zBhqYliXO54fjdQmm1mg-79" value="" style="shape=partialRectangle;connectable=0;fillColor=none;top=0;left=0;bottom=0;right=0;editable=1;overflow=hidden;fontSize=14;" parent="zBhqYliXO54fjdQmm1mg-78" vertex="1">
          <mxGeometry width="30" height="40" as="geometry">
            <mxRectangle width="30" height="40" as="alternateBounds" />
          </mxGeometry>
        </mxCell>
        <mxCell id="zBhqYliXO54fjdQmm1mg-80" value="to_user_id (integer)" style="shape=partialRectangle;connectable=0;fillColor=none;top=0;left=0;bottom=0;right=0;align=left;spacingLeft=6;overflow=hidden;fontSize=14;fontStyle=1" parent="zBhqYliXO54fjdQmm1mg-78" vertex="1">
          <mxGeometry x="30" width="165" height="40" as="geometry">
            <mxRectangle width="165" height="40" as="alternateBounds" />
          </mxGeometry>
        </mxCell>
        <mxCell id="zBhqYliXO54fjdQmm1mg-83" value="" style="edgeStyle=entityRelationEdgeStyle;fontSize=12;html=1;endArrow=ERoneToMany;startArrow=ERzeroToMany;rounded=0;endSize=14;exitX=1.03;exitY=0.478;exitDx=0;exitDy=0;exitPerimeter=0;entryX=-0.014;entryY=0.306;entryDx=0;entryDy=0;entryPerimeter=0;strokeWidth=4;startSize=14;" parent="WIyWlLk6GJQsqaUBKTNV-1" source="zBhqYliXO54fjdQmm1mg-72" target="zBhqYliXO54fjdQmm1mg-2" edge="1">
          <mxGeometry width="100" height="100" relative="1" as="geometry">
            <mxPoint x="-130" y="500" as="sourcePoint" />
            <mxPoint x="-210" y="340" as="targetPoint" />
          </mxGeometry>
        </mxCell>
        <mxCell id="zBhqYliXO54fjdQmm1mg-87" value="movies_movie" style="shape=table;startSize=30;container=1;collapsible=1;childLayout=tableLayout;fixedRows=1;rowLines=0;fontStyle=1;align=center;resizeLast=1;fontSize=14;" parent="WIyWlLk6GJQsqaUBKTNV-1" vertex="1">
          <mxGeometry x="49.920000000000016" y="270" width="240" height="270" as="geometry" />
        </mxCell>
        <mxCell id="zBhqYliXO54fjdQmm1mg-88" value="" style="shape=partialRectangle;collapsible=0;dropTarget=0;pointerEvents=0;fillColor=none;top=0;left=0;bottom=1;right=0;points=[[0,0.5],[1,0.5]];portConstraint=eastwest;fontStyle=1;fontSize=14;" parent="zBhqYliXO54fjdQmm1mg-87" vertex="1">
          <mxGeometry y="30" width="240" height="30" as="geometry" />
        </mxCell>
        <mxCell id="zBhqYliXO54fjdQmm1mg-89" value="PK" style="shape=partialRectangle;connectable=0;fillColor=none;top=0;left=0;bottom=0;right=0;fontStyle=1;overflow=hidden;fontSize=14;" parent="zBhqYliXO54fjdQmm1mg-88" vertex="1">
          <mxGeometry width="30" height="30" as="geometry">
            <mxRectangle width="30" height="30" as="alternateBounds" />
          </mxGeometry>
        </mxCell>
        <mxCell id="zBhqYliXO54fjdQmm1mg-90" value="movieid (integer)" style="shape=partialRectangle;connectable=0;fillColor=none;top=0;left=0;bottom=0;right=0;align=left;spacingLeft=6;fontStyle=5;overflow=hidden;fontSize=14;" parent="zBhqYliXO54fjdQmm1mg-88" vertex="1">
          <mxGeometry x="30" width="210" height="30" as="geometry">
            <mxRectangle width="210" height="30" as="alternateBounds" />
          </mxGeometry>
        </mxCell>
        <mxCell id="zBhqYliXO54fjdQmm1mg-91" value="" style="shape=partialRectangle;collapsible=0;dropTarget=0;pointerEvents=0;fillColor=none;top=0;left=0;bottom=0;right=0;points=[[0,0.5],[1,0.5]];portConstraint=eastwest;fontStyle=1;fontSize=14;" parent="zBhqYliXO54fjdQmm1mg-87" vertex="1">
          <mxGeometry y="60" width="240" height="30" as="geometry" />
        </mxCell>
        <mxCell id="zBhqYliXO54fjdQmm1mg-92" value="" style="shape=partialRectangle;connectable=0;fillColor=none;top=0;left=0;bottom=0;right=0;editable=1;overflow=hidden;fontStyle=1;fontSize=14;" parent="zBhqYliXO54fjdQmm1mg-91" vertex="1">
          <mxGeometry width="30" height="30" as="geometry">
            <mxRectangle width="30" height="30" as="alternateBounds" />
          </mxGeometry>
        </mxCell>
        <mxCell id="zBhqYliXO54fjdQmm1mg-93" value="title (char)" style="shape=partialRectangle;connectable=0;fillColor=none;top=0;left=0;bottom=0;right=0;align=left;spacingLeft=6;overflow=hidden;fontStyle=1;fontSize=14;" parent="zBhqYliXO54fjdQmm1mg-91" vertex="1">
          <mxGeometry x="30" width="210" height="30" as="geometry">
            <mxRectangle width="210" height="30" as="alternateBounds" />
          </mxGeometry>
        </mxCell>
        <mxCell id="zBhqYliXO54fjdQmm1mg-94" value="" style="shape=partialRectangle;collapsible=0;dropTarget=0;pointerEvents=0;fillColor=none;top=0;left=0;bottom=0;right=0;points=[[0,0.5],[1,0.5]];portConstraint=eastwest;fontStyle=1;fontSize=14;" parent="zBhqYliXO54fjdQmm1mg-87" vertex="1">
          <mxGeometry y="90" width="240" height="30" as="geometry" />
        </mxCell>
        <mxCell id="zBhqYliXO54fjdQmm1mg-95" value="" style="shape=partialRectangle;connectable=0;fillColor=none;top=0;left=0;bottom=0;right=0;editable=1;overflow=hidden;fontStyle=1;fontSize=14;" parent="zBhqYliXO54fjdQmm1mg-94" vertex="1">
          <mxGeometry width="30" height="30" as="geometry">
            <mxRectangle width="30" height="30" as="alternateBounds" />
          </mxGeometry>
        </mxCell>
        <mxCell id="zBhqYliXO54fjdQmm1mg-96" value="overview (text)" style="shape=partialRectangle;connectable=0;fillColor=none;top=0;left=0;bottom=0;right=0;align=left;spacingLeft=6;overflow=hidden;fontStyle=1;fontSize=14;" parent="zBhqYliXO54fjdQmm1mg-94" vertex="1">
          <mxGeometry x="30" width="210" height="30" as="geometry">
            <mxRectangle width="210" height="30" as="alternateBounds" />
          </mxGeometry>
        </mxCell>
        <mxCell id="zBhqYliXO54fjdQmm1mg-97" value="" style="shape=partialRectangle;collapsible=0;dropTarget=0;pointerEvents=0;fillColor=none;top=0;left=0;bottom=0;right=0;points=[[0,0.5],[1,0.5]];portConstraint=eastwest;fontStyle=1;fontSize=14;" parent="zBhqYliXO54fjdQmm1mg-87" vertex="1">
          <mxGeometry y="120" width="240" height="20" as="geometry" />
        </mxCell>
        <mxCell id="zBhqYliXO54fjdQmm1mg-98" value="" style="shape=partialRectangle;connectable=0;fillColor=none;top=0;left=0;bottom=0;right=0;editable=1;overflow=hidden;fontStyle=1;fontSize=14;" parent="zBhqYliXO54fjdQmm1mg-97" vertex="1">
          <mxGeometry width="30" height="20" as="geometry">
            <mxRectangle width="30" height="20" as="alternateBounds" />
          </mxGeometry>
        </mxCell>
        <mxCell id="zBhqYliXO54fjdQmm1mg-99" value="poster_path(char)" style="shape=partialRectangle;connectable=0;fillColor=none;top=0;left=0;bottom=0;right=0;align=left;spacingLeft=6;overflow=hidden;fontStyle=1;fontSize=14;" parent="zBhqYliXO54fjdQmm1mg-97" vertex="1">
          <mxGeometry x="30" width="210" height="20" as="geometry">
            <mxRectangle width="210" height="20" as="alternateBounds" />
          </mxGeometry>
        </mxCell>
        <mxCell id="zBhqYliXO54fjdQmm1mg-106" value="" style="shape=partialRectangle;collapsible=0;dropTarget=0;pointerEvents=0;fillColor=none;top=0;left=0;bottom=0;right=0;points=[[0,0.5],[1,0.5]];portConstraint=eastwest;fontStyle=1;fontSize=14;" parent="zBhqYliXO54fjdQmm1mg-87" vertex="1">
          <mxGeometry y="140" width="240" height="30" as="geometry" />
        </mxCell>
        <mxCell id="zBhqYliXO54fjdQmm1mg-107" value="" style="shape=partialRectangle;connectable=0;fillColor=none;top=0;left=0;bottom=0;right=0;editable=1;overflow=hidden;fontStyle=1;fontSize=14;" parent="zBhqYliXO54fjdQmm1mg-106" vertex="1">
          <mxGeometry width="30" height="30" as="geometry">
            <mxRectangle width="30" height="30" as="alternateBounds" />
          </mxGeometry>
        </mxCell>
        <mxCell id="zBhqYliXO54fjdQmm1mg-108" value="vote_count (integer)" style="shape=partialRectangle;connectable=0;fillColor=none;top=0;left=0;bottom=0;right=0;align=left;spacingLeft=6;overflow=hidden;fontStyle=1;fontSize=14;" parent="zBhqYliXO54fjdQmm1mg-106" vertex="1">
          <mxGeometry x="30" width="210" height="30" as="geometry">
            <mxRectangle width="210" height="30" as="alternateBounds" />
          </mxGeometry>
        </mxCell>
        <mxCell id="zBhqYliXO54fjdQmm1mg-109" value="" style="shape=partialRectangle;collapsible=0;dropTarget=0;pointerEvents=0;fillColor=none;top=0;left=0;bottom=0;right=0;points=[[0,0.5],[1,0.5]];portConstraint=eastwest;fontStyle=1;fontSize=14;" parent="zBhqYliXO54fjdQmm1mg-87" vertex="1">
          <mxGeometry y="170" width="240" height="20" as="geometry" />
        </mxCell>
        <mxCell id="zBhqYliXO54fjdQmm1mg-110" value="" style="shape=partialRectangle;connectable=0;fillColor=none;top=0;left=0;bottom=0;right=0;editable=1;overflow=hidden;fontStyle=1;fontSize=14;" parent="zBhqYliXO54fjdQmm1mg-109" vertex="1">
          <mxGeometry width="30" height="20" as="geometry">
            <mxRectangle width="30" height="20" as="alternateBounds" />
          </mxGeometry>
        </mxCell>
        <mxCell id="zBhqYliXO54fjdQmm1mg-111" value="vote_average (real)" style="shape=partialRectangle;connectable=0;fillColor=none;top=0;left=0;bottom=0;right=0;align=left;spacingLeft=6;overflow=hidden;fontStyle=1;fontSize=14;" parent="zBhqYliXO54fjdQmm1mg-109" vertex="1">
          <mxGeometry x="30" width="210" height="20" as="geometry">
            <mxRectangle width="210" height="20" as="alternateBounds" />
          </mxGeometry>
        </mxCell>
        <mxCell id="zBhqYliXO54fjdQmm1mg-112" value="" style="shape=partialRectangle;collapsible=0;dropTarget=0;pointerEvents=0;fillColor=none;top=0;left=0;bottom=0;right=0;points=[[0,0.5],[1,0.5]];portConstraint=eastwest;fontStyle=1;fontSize=14;" parent="zBhqYliXO54fjdQmm1mg-87" vertex="1">
          <mxGeometry y="190" width="240" height="20" as="geometry" />
        </mxCell>
        <mxCell id="zBhqYliXO54fjdQmm1mg-113" value="" style="shape=partialRectangle;connectable=0;fillColor=none;top=0;left=0;bottom=0;right=0;editable=1;overflow=hidden;fontStyle=1;fontSize=14;" parent="zBhqYliXO54fjdQmm1mg-112" vertex="1">
          <mxGeometry width="30" height="20" as="geometry">
            <mxRectangle width="30" height="20" as="alternateBounds" />
          </mxGeometry>
        </mxCell>
        <mxCell id="zBhqYliXO54fjdQmm1mg-114" value="user_vote_count (integer)" style="shape=partialRectangle;connectable=0;fillColor=none;top=0;left=0;bottom=0;right=0;align=left;spacingLeft=6;overflow=hidden;fontStyle=1;fontSize=14;" parent="zBhqYliXO54fjdQmm1mg-112" vertex="1">
          <mxGeometry x="30" width="210" height="20" as="geometry">
            <mxRectangle width="210" height="20" as="alternateBounds" />
          </mxGeometry>
        </mxCell>
        <mxCell id="zBhqYliXO54fjdQmm1mg-115" value="" style="shape=partialRectangle;collapsible=0;dropTarget=0;pointerEvents=0;fillColor=none;top=0;left=0;bottom=0;right=0;points=[[0,0.5],[1,0.5]];portConstraint=eastwest;fontStyle=1;fontSize=14;" parent="zBhqYliXO54fjdQmm1mg-87" vertex="1">
          <mxGeometry y="210" width="240" height="30" as="geometry" />
        </mxCell>
        <mxCell id="zBhqYliXO54fjdQmm1mg-116" value="" style="shape=partialRectangle;connectable=0;fillColor=none;top=0;left=0;bottom=0;right=0;editable=1;overflow=hidden;fontStyle=1;fontSize=14;" parent="zBhqYliXO54fjdQmm1mg-115" vertex="1">
          <mxGeometry width="30" height="30" as="geometry">
            <mxRectangle width="30" height="30" as="alternateBounds" />
          </mxGeometry>
        </mxCell>
        <mxCell id="zBhqYliXO54fjdQmm1mg-117" value="user_vote_average (real)" style="shape=partialRectangle;connectable=0;fillColor=none;top=0;left=0;bottom=0;right=0;align=left;spacingLeft=6;overflow=hidden;fontStyle=1;fontSize=14;" parent="zBhqYliXO54fjdQmm1mg-115" vertex="1">
          <mxGeometry x="30" width="210" height="30" as="geometry">
            <mxRectangle width="210" height="30" as="alternateBounds" />
          </mxGeometry>
        </mxCell>
        <mxCell id="zIgDbIQZG_ukaSZpA_99-0" value="" style="shape=partialRectangle;collapsible=0;dropTarget=0;pointerEvents=0;fillColor=none;top=0;left=0;bottom=0;right=0;points=[[0,0.5],[1,0.5]];portConstraint=eastwest;fontStyle=1;fontSize=14;" parent="zBhqYliXO54fjdQmm1mg-87" vertex="1">
          <mxGeometry y="240" width="240" height="30" as="geometry" />
        </mxCell>
        <mxCell id="zIgDbIQZG_ukaSZpA_99-1" value="" style="shape=partialRectangle;connectable=0;fillColor=none;top=0;left=0;bottom=0;right=0;editable=1;overflow=hidden;fontStyle=1;fontSize=14;" parent="zIgDbIQZG_ukaSZpA_99-0" vertex="1">
          <mxGeometry width="30" height="30" as="geometry">
            <mxRectangle width="30" height="30" as="alternateBounds" />
          </mxGeometry>
        </mxCell>
        <mxCell id="zIgDbIQZG_ukaSZpA_99-2" value="country_name (char)" style="shape=partialRectangle;connectable=0;fillColor=none;top=0;left=0;bottom=0;right=0;align=left;spacingLeft=6;overflow=hidden;fontStyle=1;fontSize=14;" parent="zIgDbIQZG_ukaSZpA_99-0" vertex="1">
          <mxGeometry x="30" width="210" height="30" as="geometry">
            <mxRectangle width="210" height="30" as="alternateBounds" />
          </mxGeometry>
        </mxCell>
        <mxCell id="zBhqYliXO54fjdQmm1mg-119" value="community_review" style="shape=table;startSize=30;container=1;collapsible=1;childLayout=tableLayout;fixedRows=1;rowLines=0;fontStyle=1;align=center;resizeLast=1;fontSize=14;" parent="WIyWlLk6GJQsqaUBKTNV-1" vertex="1">
          <mxGeometry x="-680" y="345" width="195" height="310" as="geometry" />
        </mxCell>
        <mxCell id="zBhqYliXO54fjdQmm1mg-120" value="" style="shape=partialRectangle;collapsible=0;dropTarget=0;pointerEvents=0;fillColor=none;top=0;left=0;bottom=1;right=0;points=[[0,0.5],[1,0.5]];portConstraint=eastwest;fontSize=14;" parent="zBhqYliXO54fjdQmm1mg-119" vertex="1">
          <mxGeometry y="30" width="195" height="30" as="geometry" />
        </mxCell>
        <mxCell id="zBhqYliXO54fjdQmm1mg-121" value="PK" style="shape=partialRectangle;connectable=0;fillColor=none;top=0;left=0;bottom=0;right=0;fontStyle=1;overflow=hidden;fontSize=14;" parent="zBhqYliXO54fjdQmm1mg-120" vertex="1">
          <mxGeometry width="30" height="30" as="geometry">
            <mxRectangle width="30" height="30" as="alternateBounds" />
          </mxGeometry>
        </mxCell>
        <mxCell id="zBhqYliXO54fjdQmm1mg-122" value="reviewid (integer)" style="shape=partialRectangle;connectable=0;fillColor=none;top=0;left=0;bottom=0;right=0;align=left;spacingLeft=6;fontStyle=5;overflow=hidden;fontSize=14;" parent="zBhqYliXO54fjdQmm1mg-120" vertex="1">
          <mxGeometry x="30" width="165" height="30" as="geometry">
            <mxRectangle width="165" height="30" as="alternateBounds" />
          </mxGeometry>
        </mxCell>
        <mxCell id="zBhqYliXO54fjdQmm1mg-123" value="" style="shape=partialRectangle;collapsible=0;dropTarget=0;pointerEvents=0;fillColor=none;top=0;left=0;bottom=0;right=0;points=[[0,0.5],[1,0.5]];portConstraint=eastwest;fontSize=14;" parent="zBhqYliXO54fjdQmm1mg-119" vertex="1">
          <mxGeometry y="60" width="195" height="40" as="geometry" />
        </mxCell>
        <mxCell id="zBhqYliXO54fjdQmm1mg-124" value="" style="shape=partialRectangle;connectable=0;fillColor=none;top=0;left=0;bottom=0;right=0;editable=1;overflow=hidden;fontSize=14;" parent="zBhqYliXO54fjdQmm1mg-123" vertex="1">
          <mxGeometry width="30" height="40" as="geometry">
            <mxRectangle width="30" height="40" as="alternateBounds" />
          </mxGeometry>
        </mxCell>
        <mxCell id="zBhqYliXO54fjdQmm1mg-125" value="title (varchar)" style="shape=partialRectangle;connectable=0;fillColor=none;top=0;left=0;bottom=0;right=0;align=left;spacingLeft=6;overflow=hidden;fontSize=14;fontStyle=1" parent="zBhqYliXO54fjdQmm1mg-123" vertex="1">
          <mxGeometry x="30" width="165" height="40" as="geometry">
            <mxRectangle width="165" height="40" as="alternateBounds" />
          </mxGeometry>
        </mxCell>
        <mxCell id="zBhqYliXO54fjdQmm1mg-129" value="" style="shape=partialRectangle;collapsible=0;dropTarget=0;pointerEvents=0;fillColor=none;top=0;left=0;bottom=0;right=0;points=[[0,0.5],[1,0.5]];portConstraint=eastwest;fontSize=14;" parent="zBhqYliXO54fjdQmm1mg-119" vertex="1">
          <mxGeometry y="100" width="195" height="40" as="geometry" />
        </mxCell>
        <mxCell id="zBhqYliXO54fjdQmm1mg-130" value="" style="shape=partialRectangle;connectable=0;fillColor=none;top=0;left=0;bottom=0;right=0;editable=1;overflow=hidden;fontSize=14;" parent="zBhqYliXO54fjdQmm1mg-129" vertex="1">
          <mxGeometry width="30" height="40" as="geometry">
            <mxRectangle width="30" height="40" as="alternateBounds" />
          </mxGeometry>
        </mxCell>
        <mxCell id="zBhqYliXO54fjdQmm1mg-131" value="movie_title (varchar)" style="shape=partialRectangle;connectable=0;fillColor=none;top=0;left=0;bottom=0;right=0;align=left;spacingLeft=6;overflow=hidden;fontSize=14;fontStyle=1" parent="zBhqYliXO54fjdQmm1mg-129" vertex="1">
          <mxGeometry x="30" width="165" height="40" as="geometry">
            <mxRectangle width="165" height="40" as="alternateBounds" />
          </mxGeometry>
        </mxCell>
        <mxCell id="zBhqYliXO54fjdQmm1mg-132" value="" style="shape=partialRectangle;collapsible=0;dropTarget=0;pointerEvents=0;fillColor=none;top=0;left=0;bottom=0;right=0;points=[[0,0.5],[1,0.5]];portConstraint=eastwest;fontSize=14;" parent="zBhqYliXO54fjdQmm1mg-119" vertex="1">
          <mxGeometry y="140" width="195" height="40" as="geometry" />
        </mxCell>
        <mxCell id="zBhqYliXO54fjdQmm1mg-133" value="" style="shape=partialRectangle;connectable=0;fillColor=none;top=0;left=0;bottom=0;right=0;editable=1;overflow=hidden;fontSize=14;" parent="zBhqYliXO54fjdQmm1mg-132" vertex="1">
          <mxGeometry width="30" height="40" as="geometry">
            <mxRectangle width="30" height="40" as="alternateBounds" />
          </mxGeometry>
        </mxCell>
        <mxCell id="zBhqYliXO54fjdQmm1mg-134" value="rank (integer)" style="shape=partialRectangle;connectable=0;fillColor=none;top=0;left=0;bottom=0;right=0;align=left;spacingLeft=6;overflow=hidden;fontSize=14;fontStyle=1" parent="zBhqYliXO54fjdQmm1mg-132" vertex="1">
          <mxGeometry x="30" width="165" height="40" as="geometry">
            <mxRectangle width="165" height="40" as="alternateBounds" />
          </mxGeometry>
        </mxCell>
        <mxCell id="zBhqYliXO54fjdQmm1mg-135" value="" style="shape=partialRectangle;collapsible=0;dropTarget=0;pointerEvents=0;fillColor=none;top=0;left=0;bottom=0;right=0;points=[[0,0.5],[1,0.5]];portConstraint=eastwest;fontSize=14;" parent="zBhqYliXO54fjdQmm1mg-119" vertex="1">
          <mxGeometry y="180" width="195" height="40" as="geometry" />
        </mxCell>
        <mxCell id="zBhqYliXO54fjdQmm1mg-136" value="" style="shape=partialRectangle;connectable=0;fillColor=none;top=0;left=0;bottom=0;right=0;editable=1;overflow=hidden;fontSize=14;" parent="zBhqYliXO54fjdQmm1mg-135" vertex="1">
          <mxGeometry width="30" height="40" as="geometry">
            <mxRectangle width="30" height="40" as="alternateBounds" />
          </mxGeometry>
        </mxCell>
        <mxCell id="zBhqYliXO54fjdQmm1mg-137" value="content (text)" style="shape=partialRectangle;connectable=0;fillColor=none;top=0;left=0;bottom=0;right=0;align=left;spacingLeft=6;overflow=hidden;fontSize=14;fontStyle=1" parent="zBhqYliXO54fjdQmm1mg-135" vertex="1">
          <mxGeometry x="30" width="165" height="40" as="geometry">
            <mxRectangle width="165" height="40" as="alternateBounds" />
          </mxGeometry>
        </mxCell>
        <mxCell id="zBhqYliXO54fjdQmm1mg-126" value="" style="shape=partialRectangle;collapsible=0;dropTarget=0;pointerEvents=0;fillColor=none;top=0;left=0;bottom=0;right=0;points=[[0,0.5],[1,0.5]];portConstraint=eastwest;fontSize=14;" parent="zBhqYliXO54fjdQmm1mg-119" vertex="1">
          <mxGeometry y="220" width="195" height="40" as="geometry" />
        </mxCell>
        <mxCell id="zBhqYliXO54fjdQmm1mg-127" value="FK" style="shape=partialRectangle;connectable=0;fillColor=none;top=0;left=0;bottom=0;right=0;editable=1;overflow=hidden;fontSize=14;fontStyle=1" parent="zBhqYliXO54fjdQmm1mg-126" vertex="1">
          <mxGeometry width="30" height="40" as="geometry">
            <mxRectangle width="30" height="40" as="alternateBounds" />
          </mxGeometry>
        </mxCell>
        <mxCell id="zBhqYliXO54fjdQmm1mg-128" value="userid" style="shape=partialRectangle;connectable=0;fillColor=none;top=0;left=0;bottom=0;right=0;align=left;spacingLeft=6;overflow=hidden;fontSize=14;fontStyle=1" parent="zBhqYliXO54fjdQmm1mg-126" vertex="1">
          <mxGeometry x="30" width="165" height="40" as="geometry">
            <mxRectangle width="165" height="40" as="alternateBounds" />
          </mxGeometry>
        </mxCell>
        <mxCell id="zBhqYliXO54fjdQmm1mg-288" value="" style="shape=partialRectangle;collapsible=0;dropTarget=0;pointerEvents=0;fillColor=none;top=0;left=0;bottom=0;right=0;points=[[0,0.5],[1,0.5]];portConstraint=eastwest;fontSize=14;" parent="zBhqYliXO54fjdQmm1mg-119" vertex="1">
          <mxGeometry y="260" width="195" height="40" as="geometry" />
        </mxCell>
        <mxCell id="zBhqYliXO54fjdQmm1mg-289" value="FK" style="shape=partialRectangle;connectable=0;fillColor=none;top=0;left=0;bottom=0;right=0;editable=1;overflow=hidden;fontSize=14;fontStyle=1" parent="zBhqYliXO54fjdQmm1mg-288" vertex="1">
          <mxGeometry width="30" height="40" as="geometry">
            <mxRectangle width="30" height="40" as="alternateBounds" />
          </mxGeometry>
        </mxCell>
        <mxCell id="zBhqYliXO54fjdQmm1mg-290" value="movieid" style="shape=partialRectangle;connectable=0;fillColor=none;top=0;left=0;bottom=0;right=0;align=left;spacingLeft=6;overflow=hidden;fontSize=14;fontStyle=1" parent="zBhqYliXO54fjdQmm1mg-288" vertex="1">
          <mxGeometry x="30" width="165" height="40" as="geometry">
            <mxRectangle width="165" height="40" as="alternateBounds" />
          </mxGeometry>
        </mxCell>
        <mxCell id="zBhqYliXO54fjdQmm1mg-144" value="community_comment" style="shape=table;startSize=30;container=1;collapsible=1;childLayout=tableLayout;fixedRows=1;rowLines=0;fontStyle=1;align=center;resizeLast=1;fontSize=14;" parent="WIyWlLk6GJQsqaUBKTNV-1" vertex="1">
          <mxGeometry x="-680" y="690" width="195" height="190" as="geometry" />
        </mxCell>
        <mxCell id="zBhqYliXO54fjdQmm1mg-145" value="" style="shape=partialRectangle;collapsible=0;dropTarget=0;pointerEvents=0;fillColor=none;top=0;left=0;bottom=1;right=0;points=[[0,0.5],[1,0.5]];portConstraint=eastwest;fontSize=14;" parent="zBhqYliXO54fjdQmm1mg-144" vertex="1">
          <mxGeometry y="30" width="195" height="30" as="geometry" />
        </mxCell>
        <mxCell id="zBhqYliXO54fjdQmm1mg-146" value="PK" style="shape=partialRectangle;connectable=0;fillColor=none;top=0;left=0;bottom=0;right=0;fontStyle=1;overflow=hidden;fontSize=14;" parent="zBhqYliXO54fjdQmm1mg-145" vertex="1">
          <mxGeometry width="29" height="30" as="geometry">
            <mxRectangle width="29" height="30" as="alternateBounds" />
          </mxGeometry>
        </mxCell>
        <mxCell id="zBhqYliXO54fjdQmm1mg-147" value="commentid (integer)" style="shape=partialRectangle;connectable=0;fillColor=none;top=0;left=0;bottom=0;right=0;align=left;spacingLeft=6;fontStyle=5;overflow=hidden;fontSize=14;" parent="zBhqYliXO54fjdQmm1mg-145" vertex="1">
          <mxGeometry x="29" width="166" height="30" as="geometry">
            <mxRectangle width="166" height="30" as="alternateBounds" />
          </mxGeometry>
        </mxCell>
        <mxCell id="zBhqYliXO54fjdQmm1mg-148" value="" style="shape=partialRectangle;collapsible=0;dropTarget=0;pointerEvents=0;fillColor=none;top=0;left=0;bottom=0;right=0;points=[[0,0.5],[1,0.5]];portConstraint=eastwest;fontSize=14;" parent="zBhqYliXO54fjdQmm1mg-144" vertex="1">
          <mxGeometry y="60" width="195" height="40" as="geometry" />
        </mxCell>
        <mxCell id="zBhqYliXO54fjdQmm1mg-149" value="" style="shape=partialRectangle;connectable=0;fillColor=none;top=0;left=0;bottom=0;right=0;editable=1;overflow=hidden;fontSize=14;" parent="zBhqYliXO54fjdQmm1mg-148" vertex="1">
          <mxGeometry width="29" height="40" as="geometry">
            <mxRectangle width="29" height="40" as="alternateBounds" />
          </mxGeometry>
        </mxCell>
        <mxCell id="zBhqYliXO54fjdQmm1mg-150" value="content (text)" style="shape=partialRectangle;connectable=0;fillColor=none;top=0;left=0;bottom=0;right=0;align=left;spacingLeft=6;overflow=hidden;fontSize=14;fontStyle=1" parent="zBhqYliXO54fjdQmm1mg-148" vertex="1">
          <mxGeometry x="29" width="166" height="40" as="geometry">
            <mxRectangle width="166" height="40" as="alternateBounds" />
          </mxGeometry>
        </mxCell>
        <mxCell id="zBhqYliXO54fjdQmm1mg-151" value="" style="shape=partialRectangle;collapsible=0;dropTarget=0;pointerEvents=0;fillColor=none;top=0;left=0;bottom=0;right=0;points=[[0,0.5],[1,0.5]];portConstraint=eastwest;fontSize=14;" parent="zBhqYliXO54fjdQmm1mg-144" vertex="1">
          <mxGeometry y="100" width="195" height="40" as="geometry" />
        </mxCell>
        <mxCell id="zBhqYliXO54fjdQmm1mg-152" value="FK" style="shape=partialRectangle;connectable=0;fillColor=none;top=0;left=0;bottom=0;right=0;editable=1;overflow=hidden;fontSize=14;fontStyle=1" parent="zBhqYliXO54fjdQmm1mg-151" vertex="1">
          <mxGeometry width="29" height="40" as="geometry">
            <mxRectangle width="29" height="40" as="alternateBounds" />
          </mxGeometry>
        </mxCell>
        <mxCell id="zBhqYliXO54fjdQmm1mg-153" value="reviewid (integer)" style="shape=partialRectangle;connectable=0;fillColor=none;top=0;left=0;bottom=0;right=0;align=left;spacingLeft=6;overflow=hidden;fontSize=14;fontStyle=1" parent="zBhqYliXO54fjdQmm1mg-151" vertex="1">
          <mxGeometry x="29" width="166" height="40" as="geometry">
            <mxRectangle width="166" height="40" as="alternateBounds" />
          </mxGeometry>
        </mxCell>
        <mxCell id="zBhqYliXO54fjdQmm1mg-154" value="" style="shape=partialRectangle;collapsible=0;dropTarget=0;pointerEvents=0;fillColor=none;top=0;left=0;bottom=0;right=0;points=[[0,0.5],[1,0.5]];portConstraint=eastwest;fontSize=14;" parent="zBhqYliXO54fjdQmm1mg-144" vertex="1">
          <mxGeometry y="140" width="195" height="40" as="geometry" />
        </mxCell>
        <mxCell id="zBhqYliXO54fjdQmm1mg-155" value="FK" style="shape=partialRectangle;connectable=0;fillColor=none;top=0;left=0;bottom=0;right=0;editable=1;overflow=hidden;fontSize=14;fontStyle=1" parent="zBhqYliXO54fjdQmm1mg-154" vertex="1">
          <mxGeometry width="29" height="40" as="geometry">
            <mxRectangle width="29" height="40" as="alternateBounds" />
          </mxGeometry>
        </mxCell>
        <mxCell id="zBhqYliXO54fjdQmm1mg-156" value="userid (integer)" style="shape=partialRectangle;connectable=0;fillColor=none;top=0;left=0;bottom=0;right=0;align=left;spacingLeft=6;overflow=hidden;fontSize=14;fontStyle=1" parent="zBhqYliXO54fjdQmm1mg-154" vertex="1">
          <mxGeometry x="29" width="166" height="40" as="geometry">
            <mxRectangle width="166" height="40" as="alternateBounds" />
          </mxGeometry>
        </mxCell>
        <mxCell id="zBhqYliXO54fjdQmm1mg-163" style="edgeStyle=orthogonalEdgeStyle;rounded=0;jumpStyle=none;orthogonalLoop=1;jettySize=auto;html=1;fontSize=14;endArrow=ERzeroToMany;endFill=0;startSize=14;endSize=14;strokeWidth=3;" parent="WIyWlLk6GJQsqaUBKTNV-1" source="zBhqYliXO54fjdQmm1mg-120" edge="1">
          <mxGeometry relative="1" as="geometry">
            <mxPoint x="-680" y="810" as="targetPoint" />
            <Array as="points">
              <mxPoint x="-720" y="390" />
              <mxPoint x="-720" y="810" />
            </Array>
          </mxGeometry>
        </mxCell>
        <mxCell id="zBhqYliXO54fjdQmm1mg-164" style="edgeStyle=orthogonalEdgeStyle;rounded=0;jumpStyle=none;orthogonalLoop=1;jettySize=auto;html=1;entryX=1;entryY=0.5;entryDx=0;entryDy=0;fontSize=14;startSize=14;endSize=14;strokeWidth=3;endArrow=ERzeroToMany;endFill=0;" parent="WIyWlLk6GJQsqaUBKTNV-1" target="zBhqYliXO54fjdQmm1mg-154" edge="1">
          <mxGeometry relative="1" as="geometry">
            <mxPoint x="-290" y="120" as="sourcePoint" />
            <mxPoint x="-469.53999999999996" y="404.28999999999996" as="targetPoint" />
            <Array as="points">
              <mxPoint x="-300" y="120" />
              <mxPoint x="-300" y="150" />
              <mxPoint x="-420" y="150" />
              <mxPoint x="-420" y="850" />
            </Array>
          </mxGeometry>
        </mxCell>
        <mxCell id="zBhqYliXO54fjdQmm1mg-165" value="movies_genre" style="shape=table;startSize=30;container=1;collapsible=1;childLayout=tableLayout;fixedRows=1;rowLines=0;fontStyle=1;align=center;resizeLast=1;fontSize=14;" parent="WIyWlLk6GJQsqaUBKTNV-1" vertex="1">
          <mxGeometry x="620" y="780" width="200" height="120" as="geometry" />
        </mxCell>
        <mxCell id="zBhqYliXO54fjdQmm1mg-166" value="" style="shape=partialRectangle;collapsible=0;dropTarget=0;pointerEvents=0;fillColor=none;top=0;left=0;bottom=1;right=0;points=[[0,0.5],[1,0.5]];portConstraint=eastwest;fontStyle=1;fontSize=14;" parent="zBhqYliXO54fjdQmm1mg-165" vertex="1">
          <mxGeometry y="30" width="200" height="30" as="geometry" />
        </mxCell>
        <mxCell id="zBhqYliXO54fjdQmm1mg-167" value="PK" style="shape=partialRectangle;connectable=0;fillColor=none;top=0;left=0;bottom=0;right=0;fontStyle=1;overflow=hidden;fontSize=14;" parent="zBhqYliXO54fjdQmm1mg-166" vertex="1">
          <mxGeometry width="30" height="30" as="geometry">
            <mxRectangle width="30" height="30" as="alternateBounds" />
          </mxGeometry>
        </mxCell>
        <mxCell id="zBhqYliXO54fjdQmm1mg-168" value="tmdb_genre_id (integer)" style="shape=partialRectangle;connectable=0;fillColor=none;top=0;left=0;bottom=0;right=0;align=left;spacingLeft=6;fontStyle=5;overflow=hidden;fontSize=14;" parent="zBhqYliXO54fjdQmm1mg-166" vertex="1">
          <mxGeometry x="30" width="170" height="30" as="geometry">
            <mxRectangle width="170" height="30" as="alternateBounds" />
          </mxGeometry>
        </mxCell>
        <mxCell id="zBhqYliXO54fjdQmm1mg-169" value="" style="shape=partialRectangle;collapsible=0;dropTarget=0;pointerEvents=0;fillColor=none;top=0;left=0;bottom=0;right=0;points=[[0,0.5],[1,0.5]];portConstraint=eastwest;fontStyle=1;fontSize=14;" parent="zBhqYliXO54fjdQmm1mg-165" vertex="1">
          <mxGeometry y="60" width="200" height="60" as="geometry" />
        </mxCell>
        <mxCell id="zBhqYliXO54fjdQmm1mg-170" value="" style="shape=partialRectangle;connectable=0;fillColor=none;top=0;left=0;bottom=0;right=0;editable=1;overflow=hidden;fontStyle=1;fontSize=14;" parent="zBhqYliXO54fjdQmm1mg-169" vertex="1">
          <mxGeometry width="30" height="60" as="geometry">
            <mxRectangle width="30" height="60" as="alternateBounds" />
          </mxGeometry>
        </mxCell>
        <mxCell id="zBhqYliXO54fjdQmm1mg-171" value="name (char)" style="shape=partialRectangle;connectable=0;fillColor=none;top=0;left=0;bottom=0;right=0;align=left;spacingLeft=6;overflow=hidden;fontStyle=1;fontSize=14;" parent="zBhqYliXO54fjdQmm1mg-169" vertex="1">
          <mxGeometry x="30" width="170" height="60" as="geometry">
            <mxRectangle width="170" height="60" as="alternateBounds" />
          </mxGeometry>
        </mxCell>
        <mxCell id="zBhqYliXO54fjdQmm1mg-208" value="movies_actor" style="shape=table;startSize=30;container=1;collapsible=1;childLayout=tableLayout;fixedRows=1;rowLines=0;fontStyle=1;align=center;resizeLast=1;fontSize=14;" parent="WIyWlLk6GJQsqaUBKTNV-1" vertex="1">
          <mxGeometry x="630" y="380" width="190" height="140" as="geometry" />
        </mxCell>
        <mxCell id="zBhqYliXO54fjdQmm1mg-209" value="" style="shape=partialRectangle;collapsible=0;dropTarget=0;pointerEvents=0;fillColor=none;top=0;left=0;bottom=1;right=0;points=[[0,0.5],[1,0.5]];portConstraint=eastwest;fontStyle=1;fontSize=14;" parent="zBhqYliXO54fjdQmm1mg-208" vertex="1">
          <mxGeometry y="30" width="190" height="30" as="geometry" />
        </mxCell>
        <mxCell id="zBhqYliXO54fjdQmm1mg-210" value="PK" style="shape=partialRectangle;connectable=0;fillColor=none;top=0;left=0;bottom=0;right=0;fontStyle=1;overflow=hidden;fontSize=14;" parent="zBhqYliXO54fjdQmm1mg-209" vertex="1">
          <mxGeometry width="30" height="30" as="geometry">
            <mxRectangle width="30" height="30" as="alternateBounds" />
          </mxGeometry>
        </mxCell>
        <mxCell id="zBhqYliXO54fjdQmm1mg-211" value="id (integer)" style="shape=partialRectangle;connectable=0;fillColor=none;top=0;left=0;bottom=0;right=0;align=left;spacingLeft=6;fontStyle=5;overflow=hidden;fontSize=14;" parent="zBhqYliXO54fjdQmm1mg-209" vertex="1">
          <mxGeometry x="30" width="160" height="30" as="geometry">
            <mxRectangle width="160" height="30" as="alternateBounds" />
          </mxGeometry>
        </mxCell>
        <mxCell id="zBhqYliXO54fjdQmm1mg-212" value="" style="shape=partialRectangle;collapsible=0;dropTarget=0;pointerEvents=0;fillColor=none;top=0;left=0;bottom=0;right=0;points=[[0,0.5],[1,0.5]];portConstraint=eastwest;fontStyle=1;fontSize=14;" parent="zBhqYliXO54fjdQmm1mg-208" vertex="1">
          <mxGeometry y="60" width="190" height="40" as="geometry" />
        </mxCell>
        <mxCell id="zBhqYliXO54fjdQmm1mg-213" value="" style="shape=partialRectangle;connectable=0;fillColor=none;top=0;left=0;bottom=0;right=0;editable=1;overflow=hidden;fontStyle=1;fontSize=14;" parent="zBhqYliXO54fjdQmm1mg-212" vertex="1">
          <mxGeometry width="30" height="40" as="geometry">
            <mxRectangle width="30" height="40" as="alternateBounds" />
          </mxGeometry>
        </mxCell>
        <mxCell id="zBhqYliXO54fjdQmm1mg-214" value="name (char)" style="shape=partialRectangle;connectable=0;fillColor=none;top=0;left=0;bottom=0;right=0;align=left;spacingLeft=6;overflow=hidden;fontStyle=1;fontSize=14;" parent="zBhqYliXO54fjdQmm1mg-212" vertex="1">
          <mxGeometry x="30" width="160" height="40" as="geometry">
            <mxRectangle width="160" height="40" as="alternateBounds" />
          </mxGeometry>
        </mxCell>
        <mxCell id="zQwztkcjhA5h0iSjnkxx-0" value="" style="shape=partialRectangle;collapsible=0;dropTarget=0;pointerEvents=0;fillColor=none;top=0;left=0;bottom=0;right=0;points=[[0,0.5],[1,0.5]];portConstraint=eastwest;fontStyle=1;fontSize=14;" vertex="1" parent="zBhqYliXO54fjdQmm1mg-208">
          <mxGeometry y="100" width="190" height="40" as="geometry" />
        </mxCell>
        <mxCell id="zQwztkcjhA5h0iSjnkxx-1" value="" style="shape=partialRectangle;connectable=0;fillColor=none;top=0;left=0;bottom=0;right=0;editable=1;overflow=hidden;fontStyle=1;fontSize=14;" vertex="1" parent="zQwztkcjhA5h0iSjnkxx-0">
          <mxGeometry width="30" height="40" as="geometry">
            <mxRectangle width="30" height="40" as="alternateBounds" />
          </mxGeometry>
        </mxCell>
        <mxCell id="zQwztkcjhA5h0iSjnkxx-2" value="profile_path (char)" style="shape=partialRectangle;connectable=0;fillColor=none;top=0;left=0;bottom=0;right=0;align=left;spacingLeft=6;overflow=hidden;fontStyle=1;fontSize=14;" vertex="1" parent="zQwztkcjhA5h0iSjnkxx-0">
          <mxGeometry x="30" width="160" height="40" as="geometry">
            <mxRectangle width="160" height="40" as="alternateBounds" />
          </mxGeometry>
        </mxCell>
        <mxCell id="zBhqYliXO54fjdQmm1mg-225" value="movies_movie_genre" style="shape=table;startSize=40;container=1;collapsible=1;childLayout=tableLayout;fixedRows=1;rowLines=0;fontStyle=1;align=center;resizeLast=1;fontSize=14;fillColor=#dae8fc;strokeColor=#6c8ebf;" parent="WIyWlLk6GJQsqaUBKTNV-1" vertex="1">
          <mxGeometry x="379.92" y="725" width="180" height="120" as="geometry" />
        </mxCell>
        <mxCell id="zBhqYliXO54fjdQmm1mg-226" value="" style="shape=partialRectangle;collapsible=0;dropTarget=0;pointerEvents=0;fillColor=#dae8fc;top=0;left=0;bottom=0;right=0;points=[[0,0.5],[1,0.5]];portConstraint=eastwest;fontSize=14;strokeColor=#6c8ebf;" parent="zBhqYliXO54fjdQmm1mg-225" vertex="1">
          <mxGeometry y="40" width="180" height="40" as="geometry" />
        </mxCell>
        <mxCell id="zBhqYliXO54fjdQmm1mg-227" value="" style="shape=partialRectangle;connectable=0;fillColor=#dae8fc;top=0;left=0;bottom=0;right=0;editable=1;overflow=hidden;fontSize=14;strokeColor=#6c8ebf;" parent="zBhqYliXO54fjdQmm1mg-226" vertex="1">
          <mxGeometry width="30" height="40" as="geometry">
            <mxRectangle width="30" height="40" as="alternateBounds" />
          </mxGeometry>
        </mxCell>
        <mxCell id="zBhqYliXO54fjdQmm1mg-228" value="movieid (integer)" style="shape=partialRectangle;connectable=0;fillColor=#dae8fc;top=0;left=0;bottom=0;right=0;align=left;spacingLeft=6;overflow=hidden;fontSize=14;fontStyle=1;strokeColor=#6c8ebf;" parent="zBhqYliXO54fjdQmm1mg-226" vertex="1">
          <mxGeometry x="30" width="150" height="40" as="geometry">
            <mxRectangle width="150" height="40" as="alternateBounds" />
          </mxGeometry>
        </mxCell>
        <mxCell id="zQwztkcjhA5h0iSjnkxx-7" value="" style="shape=partialRectangle;collapsible=0;dropTarget=0;pointerEvents=0;fillColor=#dae8fc;top=0;left=0;bottom=0;right=0;points=[[0,0.5],[1,0.5]];portConstraint=eastwest;fontSize=14;strokeColor=#6c8ebf;" vertex="1" parent="zBhqYliXO54fjdQmm1mg-225">
          <mxGeometry y="80" width="180" height="40" as="geometry" />
        </mxCell>
        <mxCell id="zQwztkcjhA5h0iSjnkxx-8" value="" style="shape=partialRectangle;connectable=0;fillColor=#dae8fc;top=0;left=0;bottom=0;right=0;editable=1;overflow=hidden;fontSize=14;strokeColor=#6c8ebf;" vertex="1" parent="zQwztkcjhA5h0iSjnkxx-7">
          <mxGeometry width="30" height="40" as="geometry">
            <mxRectangle width="30" height="40" as="alternateBounds" />
          </mxGeometry>
        </mxCell>
        <mxCell id="zQwztkcjhA5h0iSjnkxx-9" value="genreid (integer)" style="shape=partialRectangle;connectable=0;fillColor=#dae8fc;top=0;left=0;bottom=0;right=0;align=left;spacingLeft=6;overflow=hidden;fontSize=14;fontStyle=1;strokeColor=#6c8ebf;" vertex="1" parent="zQwztkcjhA5h0iSjnkxx-7">
          <mxGeometry x="30" width="150" height="40" as="geometry">
            <mxRectangle width="150" height="40" as="alternateBounds" />
          </mxGeometry>
        </mxCell>
        <mxCell id="zBhqYliXO54fjdQmm1mg-233" style="edgeStyle=orthogonalEdgeStyle;rounded=0;jumpStyle=none;orthogonalLoop=1;jettySize=auto;html=1;entryX=0.005;entryY=0.637;entryDx=0;entryDy=0;entryPerimeter=0;fontSize=13;endArrow=ERzeroToMany;endFill=0;startSize=14;endSize=14;strokeWidth=3;" parent="WIyWlLk6GJQsqaUBKTNV-1" target="zBhqYliXO54fjdQmm1mg-226" edge="1">
          <mxGeometry relative="1" as="geometry">
            <mxPoint x="290" y="315" as="sourcePoint" />
            <Array as="points">
              <mxPoint x="310" y="315" />
              <mxPoint x="310" y="791" />
            </Array>
          </mxGeometry>
        </mxCell>
        <mxCell id="zBhqYliXO54fjdQmm1mg-234" value="movies_director" style="shape=table;startSize=30;container=1;collapsible=1;childLayout=tableLayout;fixedRows=1;rowLines=0;fontStyle=1;align=center;resizeLast=1;fontSize=14;" parent="WIyWlLk6GJQsqaUBKTNV-1" vertex="1">
          <mxGeometry x="625" y="570" width="190" height="130" as="geometry" />
        </mxCell>
        <mxCell id="zBhqYliXO54fjdQmm1mg-235" value="" style="shape=partialRectangle;collapsible=0;dropTarget=0;pointerEvents=0;fillColor=none;top=0;left=0;bottom=1;right=0;points=[[0,0.5],[1,0.5]];portConstraint=eastwest;fontStyle=1;fontSize=14;" parent="zBhqYliXO54fjdQmm1mg-234" vertex="1">
          <mxGeometry y="30" width="190" height="30" as="geometry" />
        </mxCell>
        <mxCell id="zBhqYliXO54fjdQmm1mg-236" value="PK" style="shape=partialRectangle;connectable=0;fillColor=none;top=0;left=0;bottom=0;right=0;fontStyle=1;overflow=hidden;fontSize=14;" parent="zBhqYliXO54fjdQmm1mg-235" vertex="1">
          <mxGeometry width="30" height="30" as="geometry">
            <mxRectangle width="30" height="30" as="alternateBounds" />
          </mxGeometry>
        </mxCell>
        <mxCell id="zBhqYliXO54fjdQmm1mg-237" value="id (integer)" style="shape=partialRectangle;connectable=0;fillColor=none;top=0;left=0;bottom=0;right=0;align=left;spacingLeft=6;fontStyle=5;overflow=hidden;fontSize=14;" parent="zBhqYliXO54fjdQmm1mg-235" vertex="1">
          <mxGeometry x="30" width="160" height="30" as="geometry">
            <mxRectangle width="160" height="30" as="alternateBounds" />
          </mxGeometry>
        </mxCell>
        <mxCell id="zBhqYliXO54fjdQmm1mg-238" value="" style="shape=partialRectangle;collapsible=0;dropTarget=0;pointerEvents=0;fillColor=none;top=0;left=0;bottom=0;right=0;points=[[0,0.5],[1,0.5]];portConstraint=eastwest;fontStyle=1;fontSize=14;" parent="zBhqYliXO54fjdQmm1mg-234" vertex="1">
          <mxGeometry y="60" width="190" height="35" as="geometry" />
        </mxCell>
        <mxCell id="zBhqYliXO54fjdQmm1mg-239" value="" style="shape=partialRectangle;connectable=0;fillColor=none;top=0;left=0;bottom=0;right=0;editable=1;overflow=hidden;fontStyle=1;fontSize=14;" parent="zBhqYliXO54fjdQmm1mg-238" vertex="1">
          <mxGeometry width="30" height="35" as="geometry">
            <mxRectangle width="30" height="35" as="alternateBounds" />
          </mxGeometry>
        </mxCell>
        <mxCell id="zBhqYliXO54fjdQmm1mg-240" value="name (char)" style="shape=partialRectangle;connectable=0;fillColor=none;top=0;left=0;bottom=0;right=0;align=left;spacingLeft=6;overflow=hidden;fontStyle=1;fontSize=14;" parent="zBhqYliXO54fjdQmm1mg-238" vertex="1">
          <mxGeometry x="30" width="160" height="35" as="geometry">
            <mxRectangle width="160" height="35" as="alternateBounds" />
          </mxGeometry>
        </mxCell>
        <mxCell id="zQwztkcjhA5h0iSjnkxx-3" value="" style="shape=partialRectangle;collapsible=0;dropTarget=0;pointerEvents=0;fillColor=none;top=0;left=0;bottom=0;right=0;points=[[0,0.5],[1,0.5]];portConstraint=eastwest;fontStyle=1;fontSize=14;" vertex="1" parent="zBhqYliXO54fjdQmm1mg-234">
          <mxGeometry y="95" width="190" height="35" as="geometry" />
        </mxCell>
        <mxCell id="zQwztkcjhA5h0iSjnkxx-4" value="" style="shape=partialRectangle;connectable=0;fillColor=none;top=0;left=0;bottom=0;right=0;editable=1;overflow=hidden;fontStyle=1;fontSize=14;" vertex="1" parent="zQwztkcjhA5h0iSjnkxx-3">
          <mxGeometry width="30" height="35" as="geometry">
            <mxRectangle width="30" height="35" as="alternateBounds" />
          </mxGeometry>
        </mxCell>
        <mxCell id="zQwztkcjhA5h0iSjnkxx-5" value="profile_path (char)" style="shape=partialRectangle;connectable=0;fillColor=none;top=0;left=0;bottom=0;right=0;align=left;spacingLeft=6;overflow=hidden;fontStyle=1;fontSize=14;" vertex="1" parent="zQwztkcjhA5h0iSjnkxx-3">
          <mxGeometry x="30" width="160" height="35" as="geometry">
            <mxRectangle width="160" height="35" as="alternateBounds" />
          </mxGeometry>
        </mxCell>
        <mxCell id="zBhqYliXO54fjdQmm1mg-254" value="movies_movie_actor" style="shape=table;startSize=30;container=1;collapsible=1;childLayout=tableLayout;fixedRows=1;rowLines=0;fontStyle=1;align=center;resizeLast=1;fontSize=14;fillColor=#dae8fc;strokeColor=#6c8ebf;" parent="WIyWlLk6GJQsqaUBKTNV-1" vertex="1">
          <mxGeometry x="369.92" y="340" width="190" height="110" as="geometry" />
        </mxCell>
        <mxCell id="zBhqYliXO54fjdQmm1mg-255" value="" style="shape=partialRectangle;collapsible=0;dropTarget=0;pointerEvents=0;fillColor=#dae8fc;top=0;left=0;bottom=1;right=0;points=[[0,0.5],[1,0.5]];portConstraint=eastwest;fontStyle=1;fontSize=14;strokeColor=#6c8ebf;" parent="zBhqYliXO54fjdQmm1mg-254" vertex="1">
          <mxGeometry y="30" width="190" height="30" as="geometry" />
        </mxCell>
        <mxCell id="zBhqYliXO54fjdQmm1mg-256" value="" style="shape=partialRectangle;connectable=0;fillColor=#dae8fc;top=0;left=0;bottom=0;right=0;fontStyle=1;overflow=hidden;fontSize=14;strokeColor=#6c8ebf;" parent="zBhqYliXO54fjdQmm1mg-255" vertex="1">
          <mxGeometry width="30" height="30" as="geometry">
            <mxRectangle width="30" height="30" as="alternateBounds" />
          </mxGeometry>
        </mxCell>
        <mxCell id="zBhqYliXO54fjdQmm1mg-257" value="movieid (integer)" style="shape=partialRectangle;connectable=0;fillColor=#dae8fc;top=0;left=0;bottom=0;right=0;align=left;spacingLeft=6;fontStyle=5;overflow=hidden;fontSize=14;strokeColor=#6c8ebf;" parent="zBhqYliXO54fjdQmm1mg-255" vertex="1">
          <mxGeometry x="30" width="160" height="30" as="geometry">
            <mxRectangle width="160" height="30" as="alternateBounds" />
          </mxGeometry>
        </mxCell>
        <mxCell id="zBhqYliXO54fjdQmm1mg-258" value="" style="shape=partialRectangle;collapsible=0;dropTarget=0;pointerEvents=0;fillColor=#dae8fc;top=0;left=0;bottom=0;right=0;points=[[0,0.5],[1,0.5]];portConstraint=eastwest;fontStyle=1;fontSize=14;strokeColor=#6c8ebf;" parent="zBhqYliXO54fjdQmm1mg-254" vertex="1">
          <mxGeometry y="60" width="190" height="50" as="geometry" />
        </mxCell>
        <mxCell id="zBhqYliXO54fjdQmm1mg-259" value="" style="shape=partialRectangle;connectable=0;fillColor=#dae8fc;top=0;left=0;bottom=0;right=0;editable=1;overflow=hidden;fontStyle=1;fontSize=14;strokeColor=#6c8ebf;" parent="zBhqYliXO54fjdQmm1mg-258" vertex="1">
          <mxGeometry width="30" height="50" as="geometry">
            <mxRectangle width="30" height="50" as="alternateBounds" />
          </mxGeometry>
        </mxCell>
        <mxCell id="zBhqYliXO54fjdQmm1mg-260" value="actorid (integer)" style="shape=partialRectangle;connectable=0;fillColor=#dae8fc;top=0;left=0;bottom=0;right=0;align=left;spacingLeft=6;overflow=hidden;fontStyle=1;fontSize=14;strokeColor=#6c8ebf;" parent="zBhqYliXO54fjdQmm1mg-258" vertex="1">
          <mxGeometry x="30" width="160" height="50" as="geometry">
            <mxRectangle width="160" height="50" as="alternateBounds" />
          </mxGeometry>
        </mxCell>
        <mxCell id="zBhqYliXO54fjdQmm1mg-261" value="movies_movie_director" style="shape=table;startSize=30;container=1;collapsible=1;childLayout=tableLayout;fixedRows=1;rowLines=0;fontStyle=1;align=center;resizeLast=1;fontSize=14;fillColor=#dae8fc;strokeColor=#6c8ebf;" parent="WIyWlLk6GJQsqaUBKTNV-1" vertex="1">
          <mxGeometry x="374.92" y="530" width="190" height="110" as="geometry" />
        </mxCell>
        <mxCell id="zBhqYliXO54fjdQmm1mg-262" value="" style="shape=partialRectangle;collapsible=0;dropTarget=0;pointerEvents=0;fillColor=#dae8fc;top=0;left=0;bottom=1;right=0;points=[[0,0.5],[1,0.5]];portConstraint=eastwest;fontStyle=1;fontSize=14;strokeColor=#6c8ebf;" parent="zBhqYliXO54fjdQmm1mg-261" vertex="1">
          <mxGeometry y="30" width="190" height="30" as="geometry" />
        </mxCell>
        <mxCell id="zBhqYliXO54fjdQmm1mg-263" value="" style="shape=partialRectangle;connectable=0;fillColor=#dae8fc;top=0;left=0;bottom=0;right=0;fontStyle=1;overflow=hidden;fontSize=14;strokeColor=#6c8ebf;" parent="zBhqYliXO54fjdQmm1mg-262" vertex="1">
          <mxGeometry width="30" height="30" as="geometry">
            <mxRectangle width="30" height="30" as="alternateBounds" />
          </mxGeometry>
        </mxCell>
        <mxCell id="zBhqYliXO54fjdQmm1mg-264" value="movieid (integer)" style="shape=partialRectangle;connectable=0;fillColor=#dae8fc;top=0;left=0;bottom=0;right=0;align=left;spacingLeft=6;fontStyle=5;overflow=hidden;fontSize=14;strokeColor=#6c8ebf;" parent="zBhqYliXO54fjdQmm1mg-262" vertex="1">
          <mxGeometry x="30" width="160" height="30" as="geometry">
            <mxRectangle width="160" height="30" as="alternateBounds" />
          </mxGeometry>
        </mxCell>
        <mxCell id="zBhqYliXO54fjdQmm1mg-265" value="" style="shape=partialRectangle;collapsible=0;dropTarget=0;pointerEvents=0;fillColor=#dae8fc;top=0;left=0;bottom=0;right=0;points=[[0,0.5],[1,0.5]];portConstraint=eastwest;fontStyle=1;fontSize=14;strokeColor=#6c8ebf;" parent="zBhqYliXO54fjdQmm1mg-261" vertex="1">
          <mxGeometry y="60" width="190" height="50" as="geometry" />
        </mxCell>
        <mxCell id="zBhqYliXO54fjdQmm1mg-266" value="" style="shape=partialRectangle;connectable=0;fillColor=#dae8fc;top=0;left=0;bottom=0;right=0;editable=1;overflow=hidden;fontStyle=1;fontSize=14;strokeColor=#6c8ebf;" parent="zBhqYliXO54fjdQmm1mg-265" vertex="1">
          <mxGeometry width="30" height="50" as="geometry">
            <mxRectangle width="30" height="50" as="alternateBounds" />
          </mxGeometry>
        </mxCell>
        <mxCell id="zBhqYliXO54fjdQmm1mg-267" value="directorid (integer)" style="shape=partialRectangle;connectable=0;fillColor=#dae8fc;top=0;left=0;bottom=0;right=0;align=left;spacingLeft=6;overflow=hidden;fontStyle=1;fontSize=14;strokeColor=#6c8ebf;" parent="zBhqYliXO54fjdQmm1mg-265" vertex="1">
          <mxGeometry x="30" width="160" height="50" as="geometry">
            <mxRectangle width="160" height="50" as="alternateBounds" />
          </mxGeometry>
        </mxCell>
        <mxCell id="zBhqYliXO54fjdQmm1mg-268" style="edgeStyle=orthogonalEdgeStyle;rounded=0;jumpStyle=none;orthogonalLoop=1;jettySize=auto;html=1;exitX=1;exitY=0.5;exitDx=0;exitDy=0;entryX=0;entryY=0.5;entryDx=0;entryDy=0;fontSize=13;endArrow=ERzeroToMany;endFill=0;startSize=14;endSize=14;strokeWidth=3;" parent="WIyWlLk6GJQsqaUBKTNV-1" source="zBhqYliXO54fjdQmm1mg-88" target="zBhqYliXO54fjdQmm1mg-255" edge="1">
          <mxGeometry relative="1" as="geometry" />
        </mxCell>
        <mxCell id="zBhqYliXO54fjdQmm1mg-269" style="edgeStyle=orthogonalEdgeStyle;rounded=0;jumpStyle=none;orthogonalLoop=1;jettySize=auto;html=1;exitX=0;exitY=0.5;exitDx=0;exitDy=0;entryX=1;entryY=0.5;entryDx=0;entryDy=0;fontSize=13;endArrow=ERzeroToMany;endFill=0;startSize=14;endSize=14;strokeWidth=3;" parent="WIyWlLk6GJQsqaUBKTNV-1" source="zBhqYliXO54fjdQmm1mg-209" target="zBhqYliXO54fjdQmm1mg-258" edge="1">
          <mxGeometry relative="1" as="geometry" />
        </mxCell>
        <mxCell id="zBhqYliXO54fjdQmm1mg-270" style="edgeStyle=orthogonalEdgeStyle;rounded=0;jumpStyle=none;orthogonalLoop=1;jettySize=auto;html=1;exitX=0;exitY=0.5;exitDx=0;exitDy=0;fontSize=13;endArrow=ERzeroToMany;endFill=0;startSize=14;endSize=14;strokeWidth=3;entryX=1;entryY=0.5;entryDx=0;entryDy=0;" parent="WIyWlLk6GJQsqaUBKTNV-1" source="zBhqYliXO54fjdQmm1mg-235" target="zBhqYliXO54fjdQmm1mg-265" edge="1">
          <mxGeometry relative="1" as="geometry" />
        </mxCell>
        <mxCell id="zBhqYliXO54fjdQmm1mg-271" style="edgeStyle=orthogonalEdgeStyle;rounded=0;jumpStyle=none;orthogonalLoop=1;jettySize=auto;html=1;exitX=1;exitY=0.5;exitDx=0;exitDy=0;entryX=0;entryY=0.5;entryDx=0;entryDy=0;fontSize=13;endArrow=ERzeroToMany;endFill=0;startSize=14;endSize=14;strokeWidth=3;" parent="WIyWlLk6GJQsqaUBKTNV-1" source="zBhqYliXO54fjdQmm1mg-88" target="zBhqYliXO54fjdQmm1mg-262" edge="1">
          <mxGeometry relative="1" as="geometry" />
        </mxCell>
        <mxCell id="zBhqYliXO54fjdQmm1mg-273" value="vote_rate" style="shape=table;startSize=30;container=1;collapsible=1;childLayout=tableLayout;fixedRows=1;rowLines=0;fontStyle=1;align=center;resizeLast=1;fontSize=14;fillColor=#dae8fc;strokeColor=#6c8ebf;" parent="WIyWlLk6GJQsqaUBKTNV-1" vertex="1">
          <mxGeometry x="-269.5" y="300" width="190" height="190" as="geometry" />
        </mxCell>
        <mxCell id="zBhqYliXO54fjdQmm1mg-274" value="" style="shape=partialRectangle;collapsible=0;dropTarget=0;pointerEvents=0;fillColor=#dae8fc;top=0;left=0;bottom=1;right=0;points=[[0,0.5],[1,0.5]];portConstraint=eastwest;fontStyle=1;fontSize=14;strokeColor=#6c8ebf;" parent="zBhqYliXO54fjdQmm1mg-273" vertex="1">
          <mxGeometry y="30" width="190" height="30" as="geometry" />
        </mxCell>
        <mxCell id="zBhqYliXO54fjdQmm1mg-275" value="" style="shape=partialRectangle;connectable=0;fillColor=#dae8fc;top=0;left=0;bottom=0;right=0;fontStyle=1;overflow=hidden;fontSize=14;strokeColor=#6c8ebf;" parent="zBhqYliXO54fjdQmm1mg-274" vertex="1">
          <mxGeometry width="30" height="30" as="geometry">
            <mxRectangle width="30" height="30" as="alternateBounds" />
          </mxGeometry>
        </mxCell>
        <mxCell id="zBhqYliXO54fjdQmm1mg-276" value="vote_rateid (integer)" style="shape=partialRectangle;connectable=0;fillColor=#dae8fc;top=0;left=0;bottom=0;right=0;align=left;spacingLeft=6;fontStyle=5;overflow=hidden;fontSize=14;strokeColor=#6c8ebf;" parent="zBhqYliXO54fjdQmm1mg-274" vertex="1">
          <mxGeometry x="30" width="160" height="30" as="geometry">
            <mxRectangle width="160" height="30" as="alternateBounds" />
          </mxGeometry>
        </mxCell>
        <mxCell id="zBhqYliXO54fjdQmm1mg-277" value="" style="shape=partialRectangle;collapsible=0;dropTarget=0;pointerEvents=0;fillColor=#dae8fc;top=0;left=0;bottom=0;right=0;points=[[0,0.5],[1,0.5]];portConstraint=eastwest;fontStyle=1;fontSize=14;strokeColor=#6c8ebf;" parent="zBhqYliXO54fjdQmm1mg-273" vertex="1">
          <mxGeometry y="60" width="190" height="40" as="geometry" />
        </mxCell>
        <mxCell id="zBhqYliXO54fjdQmm1mg-278" value="" style="shape=partialRectangle;connectable=0;fillColor=#dae8fc;top=0;left=0;bottom=0;right=0;editable=1;overflow=hidden;fontStyle=1;fontSize=14;strokeColor=#6c8ebf;" parent="zBhqYliXO54fjdQmm1mg-277" vertex="1">
          <mxGeometry width="30" height="40" as="geometry">
            <mxRectangle width="30" height="40" as="alternateBounds" />
          </mxGeometry>
        </mxCell>
        <mxCell id="zBhqYliXO54fjdQmm1mg-279" value="userid (integer)" style="shape=partialRectangle;connectable=0;fillColor=#dae8fc;top=0;left=0;bottom=0;right=0;align=left;spacingLeft=6;overflow=hidden;fontStyle=1;fontSize=14;strokeColor=#6c8ebf;" parent="zBhqYliXO54fjdQmm1mg-277" vertex="1">
          <mxGeometry x="30" width="160" height="40" as="geometry">
            <mxRectangle width="160" height="40" as="alternateBounds" />
          </mxGeometry>
        </mxCell>
        <mxCell id="zBhqYliXO54fjdQmm1mg-280" value="" style="shape=partialRectangle;collapsible=0;dropTarget=0;pointerEvents=0;fillColor=#dae8fc;top=0;left=0;bottom=0;right=0;points=[[0,0.5],[1,0.5]];portConstraint=eastwest;fontStyle=1;fontSize=14;strokeColor=#6c8ebf;" parent="zBhqYliXO54fjdQmm1mg-273" vertex="1">
          <mxGeometry y="100" width="190" height="45" as="geometry" />
        </mxCell>
        <mxCell id="zBhqYliXO54fjdQmm1mg-281" value="" style="shape=partialRectangle;connectable=0;fillColor=#dae8fc;top=0;left=0;bottom=0;right=0;editable=1;overflow=hidden;fontStyle=1;fontSize=14;strokeColor=#6c8ebf;" parent="zBhqYliXO54fjdQmm1mg-280" vertex="1">
          <mxGeometry width="30" height="45" as="geometry">
            <mxRectangle width="30" height="45" as="alternateBounds" />
          </mxGeometry>
        </mxCell>
        <mxCell id="zBhqYliXO54fjdQmm1mg-282" value="movieid (integer)" style="shape=partialRectangle;connectable=0;fillColor=#dae8fc;top=0;left=0;bottom=0;right=0;align=left;spacingLeft=6;overflow=hidden;fontStyle=1;fontSize=14;strokeColor=#6c8ebf;" parent="zBhqYliXO54fjdQmm1mg-280" vertex="1">
          <mxGeometry x="30" width="160" height="45" as="geometry">
            <mxRectangle width="160" height="45" as="alternateBounds" />
          </mxGeometry>
        </mxCell>
        <mxCell id="zBhqYliXO54fjdQmm1mg-283" value="" style="shape=partialRectangle;collapsible=0;dropTarget=0;pointerEvents=0;fillColor=#dae8fc;top=0;left=0;bottom=0;right=0;points=[[0,0.5],[1,0.5]];portConstraint=eastwest;fontStyle=1;fontSize=14;strokeColor=#6c8ebf;" parent="zBhqYliXO54fjdQmm1mg-273" vertex="1">
          <mxGeometry y="145" width="190" height="45" as="geometry" />
        </mxCell>
        <mxCell id="zBhqYliXO54fjdQmm1mg-284" value="" style="shape=partialRectangle;connectable=0;fillColor=#dae8fc;top=0;left=0;bottom=0;right=0;editable=1;overflow=hidden;fontStyle=1;fontSize=14;strokeColor=#6c8ebf;" parent="zBhqYliXO54fjdQmm1mg-283" vertex="1">
          <mxGeometry width="30" height="45" as="geometry">
            <mxRectangle width="30" height="45" as="alternateBounds" />
          </mxGeometry>
        </mxCell>
        <mxCell id="zBhqYliXO54fjdQmm1mg-285" value="rate (integer)" style="shape=partialRectangle;connectable=0;fillColor=#dae8fc;top=0;left=0;bottom=0;right=0;align=left;spacingLeft=6;overflow=hidden;fontStyle=1;fontSize=14;strokeColor=#6c8ebf;" parent="zBhqYliXO54fjdQmm1mg-283" vertex="1">
          <mxGeometry x="30" width="160" height="45" as="geometry">
            <mxRectangle width="160" height="45" as="alternateBounds" />
          </mxGeometry>
        </mxCell>
        <mxCell id="zBhqYliXO54fjdQmm1mg-286" style="edgeStyle=orthogonalEdgeStyle;rounded=0;jumpStyle=none;orthogonalLoop=1;jettySize=auto;html=1;exitX=1;exitY=0.5;exitDx=0;exitDy=0;entryX=0;entryY=0.5;entryDx=0;entryDy=0;fontSize=13;endArrow=ERzeroToMany;endFill=0;startSize=14;endSize=14;strokeWidth=3;" parent="WIyWlLk6GJQsqaUBKTNV-1" source="zBhqYliXO54fjdQmm1mg-2" target="zBhqYliXO54fjdQmm1mg-277" edge="1">
          <mxGeometry relative="1" as="geometry" />
        </mxCell>
        <mxCell id="zBhqYliXO54fjdQmm1mg-287" style="edgeStyle=orthogonalEdgeStyle;rounded=0;jumpStyle=none;orthogonalLoop=1;jettySize=auto;html=1;exitX=0;exitY=0.5;exitDx=0;exitDy=0;entryX=1.022;entryY=0.416;entryDx=0;entryDy=0;entryPerimeter=0;fontSize=13;endArrow=ERzeroToMany;endFill=0;startSize=14;endSize=14;strokeWidth=3;" parent="WIyWlLk6GJQsqaUBKTNV-1" source="zBhqYliXO54fjdQmm1mg-88" target="zBhqYliXO54fjdQmm1mg-280" edge="1">
          <mxGeometry relative="1" as="geometry" />
        </mxCell>
        <mxCell id="zBhqYliXO54fjdQmm1mg-291" style="edgeStyle=orthogonalEdgeStyle;rounded=0;jumpStyle=none;orthogonalLoop=1;jettySize=auto;html=1;exitX=0;exitY=0.5;exitDx=0;exitDy=0;entryX=1;entryY=0.5;entryDx=0;entryDy=0;fontSize=13;endArrow=ERzeroToMany;endFill=0;startSize=14;endSize=14;strokeWidth=3;" parent="WIyWlLk6GJQsqaUBKTNV-1" source="zBhqYliXO54fjdQmm1mg-88" target="zBhqYliXO54fjdQmm1mg-288" edge="1">
          <mxGeometry relative="1" as="geometry">
            <Array as="points">
              <mxPoint x="10" y="315" />
              <mxPoint x="10" y="625" />
            </Array>
          </mxGeometry>
        </mxCell>
        <mxCell id="zBhqYliXO54fjdQmm1mg-293" value="&lt;b&gt;유저 팔로우&lt;br&gt;기능&lt;/b&gt;" style="shape=note;whiteSpace=wrap;html=1;backgroundOutline=1;darkOpacity=0.05;fontSize=13;gradientColor=none;" parent="WIyWlLk6GJQsqaUBKTNV-1" vertex="1">
          <mxGeometry x="-810" y="70" width="80" height="100" as="geometry" />
        </mxCell>
        <mxCell id="zBhqYliXO54fjdQmm1mg-294" value="&lt;b&gt;영화 추천을 위한&lt;br&gt;도시, 배우, 감독, 장르 &lt;br&gt;테이블&lt;br&gt;&lt;/b&gt;" style="shape=note;whiteSpace=wrap;html=1;backgroundOutline=1;darkOpacity=0.05;fontSize=13;gradientColor=none;" parent="WIyWlLk6GJQsqaUBKTNV-1" vertex="1">
          <mxGeometry x="529.84" y="70" width="160.16" height="120" as="geometry" />
        </mxCell>
        <mxCell id="zBhqYliXO54fjdQmm1mg-295" value="&lt;span style=&quot;font-size: 15px&quot;&gt;&lt;b&gt;유저: 댓글&lt;br&gt;(1:N)&lt;br&gt;리뷰: 댓글&lt;br&gt;(1:N)&lt;br&gt;&lt;/b&gt;&lt;/span&gt;" style="shape=note;whiteSpace=wrap;html=1;backgroundOutline=1;darkOpacity=0.05;fontSize=13;gradientColor=none;" parent="WIyWlLk6GJQsqaUBKTNV-1" vertex="1">
          <mxGeometry x="-860" y="720" width="130" height="150" as="geometry" />
        </mxCell>
        <mxCell id="zBhqYliXO54fjdQmm1mg-296" value="&lt;b style=&quot;font-size: 15px&quot;&gt;유저: 리뷰&lt;br&gt;(1: N)&lt;br&gt;영화: 리뷰&lt;br&gt;(1:N)&lt;/b&gt;" style="shape=note;whiteSpace=wrap;html=1;backgroundOutline=1;darkOpacity=0.05;fontSize=13;gradientColor=none;" parent="WIyWlLk6GJQsqaUBKTNV-1" vertex="1">
          <mxGeometry x="-860" y="400" width="130" height="150" as="geometry" />
        </mxCell>
        <mxCell id="zBhqYliXO54fjdQmm1mg-297" value="&lt;b&gt;Many to Many&lt;br&gt;relation&lt;/b&gt;" style="rounded=0;whiteSpace=wrap;html=1;fontSize=15;fillColor=#dae8fc;strokeColor=#6c8ebf;" parent="WIyWlLk6GJQsqaUBKTNV-1" vertex="1">
          <mxGeometry x="379.91999999999996" y="260" width="120" height="60" as="geometry" />
        </mxCell>
        <mxCell id="zBhqYliXO54fjdQmm1mg-298" value="&lt;b&gt;유저 프로필 및 rank&lt;br&gt;포인트 기능&lt;/b&gt;" style="shape=note;whiteSpace=wrap;html=1;backgroundOutline=1;darkOpacity=0.05;fontSize=13;gradientColor=none;" parent="WIyWlLk6GJQsqaUBKTNV-1" vertex="1">
          <mxGeometry x="-20.08" y="90" width="100.08" height="120" as="geometry" />
        </mxCell>
        <mxCell id="zBhqYliXO54fjdQmm1mg-299" value="&lt;b&gt;유저 맞춤형 &lt;br&gt;영화 추천을 위한 평점 기능&lt;/b&gt;" style="shape=note;whiteSpace=wrap;html=1;backgroundOutline=1;darkOpacity=0.05;fontSize=13;gradientColor=none;" parent="WIyWlLk6GJQsqaUBKTNV-1" vertex="1">
          <mxGeometry x="-240" y="500" width="100.08" height="120" as="geometry" />
        </mxCell>
        <mxCell id="zQwztkcjhA5h0iSjnkxx-12" style="edgeStyle=orthogonalEdgeStyle;rounded=0;jumpStyle=none;orthogonalLoop=1;jettySize=auto;html=1;exitX=0;exitY=0.5;exitDx=0;exitDy=0;fontSize=13;endArrow=ERzeroToMany;endFill=0;startSize=14;endSize=14;strokeWidth=3;entryX=1;entryY=0.5;entryDx=0;entryDy=0;" edge="1" parent="WIyWlLk6GJQsqaUBKTNV-1" source="zBhqYliXO54fjdQmm1mg-166" target="zQwztkcjhA5h0iSjnkxx-7">
          <mxGeometry relative="1" as="geometry">
            <mxPoint x="635" y="625" as="sourcePoint" />
            <mxPoint x="574.9200000000001" y="625" as="targetPoint" />
          </mxGeometry>
        </mxCell>
      </root>
    </mxGraphModel>
  </diagram>
</mxfile>
